<svg xmlns="http://www.w3.org/2000/svg" width="13.686" height="13.685" viewBox="0 0 13.686 13.685"><defs><style>.a{fill:#acafbc;stroke:#acafbc;stroke-width:0.2px;}</style></defs><g transform="translate(0.101 0.1)"><g transform="translate(8.316 0)"><path class="a" d="M315.951,0a.225.225,0,1,0,0,.449,4.5,4.5,0,0,1,4.5,4.5.225.225,0,1,0,.449,0A4.95,4.95,0,0,0,315.951,0Z" transform="translate(-315.726)"/></g><g transform="translate(8.316 1.349)"><path class="a" d="M315.951,51.2a.225.225,0,1,0,0,.45A3.15,3.15,0,0,1,319.1,54.8a.225.225,0,0,0,.45,0A3.6,3.6,0,0,0,315.951,51.2Z" transform="translate(-315.726 -51.2)"/></g><g transform="translate(8.316 2.697)"><path class="a" d="M315.951,102.4a.225.225,0,1,0,0,.449,1.8,1.8,0,0,1,1.8,1.8.225.225,0,0,0,.449,0A2.25,2.25,0,0,0,315.951,102.4Z" transform="translate(-315.726 -102.4)"/></g><g transform="translate(0 0)"><path class="a" d="M12.164,8.434a8.214,8.214,0,0,1-1.792-.446,1.543,1.543,0,0,0-1.621.346l-.71.709A10.256,10.256,0,0,1,4.426,5.435l.711-.709a1.535,1.535,0,0,0,.346-1.617,8.18,8.18,0,0,1-.447-1.791A1.541,1.541,0,0,0,3.5,0H1.536C1.49,0,1.444,0,1.4.006A1.534,1.534,0,0,0,.008,1.674,13.214,13.214,0,0,0,2.054,7.443a13.077,13.077,0,0,0,4,3.993,13.28,13.28,0,0,0,5.759,2.043q.069.006.14.006h0a1.536,1.536,0,0,0,1.529-1.538V9.987A1.534,1.534,0,0,0,12.164,8.434Zm.873,1.545v1.969a1.086,1.086,0,0,1-1.082,1.088c-.035,0-.069,0-.1,0A12.829,12.829,0,0,1,6.3,11.057,12.629,12.629,0,0,1,2.432,7.2,12.763,12.763,0,0,1,.455,1.63,1.085,1.085,0,0,1,1.439.454c.032,0,.064,0,.1,0H3.515a1.088,1.088,0,0,1,1.075.93,8.629,8.629,0,0,0,.471,1.888,1.084,1.084,0,0,1-.243,1.142l-.832.831a.225.225,0,0,0-.037.27A10.7,10.7,0,0,0,7.966,9.519a.225.225,0,0,0,.27-.036l.832-.83a1.092,1.092,0,0,1,1.147-.244,8.654,8.654,0,0,0,1.889.47A1.084,1.084,0,0,1,13.037,9.979Z" transform="translate(-0.002 0)"/></g><g transform="translate(0.898 0.899)"><path class="a" d="M36.57,34.134H34.733l-.056,0a.635.635,0,0,0-.578.678,12.84,12.84,0,0,0,.457,2.306.225.225,0,0,0,.215.16.222.222,0,0,0,.065-.009.225.225,0,0,0,.151-.28,12.369,12.369,0,0,1-.441-2.221.178.178,0,0,1,.043-.12.2.2,0,0,1,.143-.067H36.57a.225.225,0,0,0,0-.45Z" transform="translate(-34.097 -34.134)"/></g><g transform="translate(9.44 9.889)"><path class="a" d="M361.318,375.467a.225.225,0,0,0-.225.225v1.834a.187.187,0,0,1-.054.134.183.183,0,0,1-.127.055h-.021a12.36,12.36,0,0,1-2.206-.44.225.225,0,0,0-.129.431,12.819,12.819,0,0,0,2.29.456c.018,0,.056,0,.061,0a.636.636,0,0,0,.634-.639v-1.833A.225.225,0,0,0,361.318,375.467Z" transform="translate(-358.396 -375.467)"/></g></g></svg>