<svg xmlns="http://www.w3.org/2000/svg" width="17.413" height="11.609" viewBox="0 0 17.413 11.609"><defs><style>.a{fill:#acafbc;}</style></defs><g transform="translate(0 0)"><path class="a" d="M15.6,85.333H1.814A1.816,1.816,0,0,0,0,87.147v7.981a1.816,1.816,0,0,0,1.814,1.814H15.6a1.816,1.816,0,0,0,1.814-1.814V87.147A1.816,1.816,0,0,0,15.6,85.333Zm1.088,9.795A1.09,1.09,0,0,1,15.6,96.216H1.814A1.09,1.09,0,0,1,.726,95.128V87.147a1.09,1.09,0,0,1,1.088-1.088H15.6a1.09,1.09,0,0,1,1.088,1.088v7.981Z" transform="translate(0 -85.333)"/></g><g transform="translate(1.451 1.451)"><path class="a" d="M57.117,128.158a.363.363,0,0,0-.5-.094l-5.95,4.071a1.3,1.3,0,0,1-1.475,0l-5.95-4.071a.363.363,0,1,0-.409.6l5.95,4.071a2.018,2.018,0,0,0,2.294,0l5.95-4.071A.363.363,0,0,0,57.117,128.158Z" transform="translate(-42.67 -128)"/></g><g transform="translate(1.45 5.804)"><path class="a" d="M47.641,256.126a.365.365,0,0,0-.512-.046l-4.353,3.628a.363.363,0,0,0,.465.558l4.353-3.628A.363.363,0,0,0,47.641,256.126Z" transform="translate(-42.646 -255.996)"/></g><g transform="translate(10.883 5.804)"><path class="a" d="M324.95,259.706l-4.353-3.628a.363.363,0,0,0-.465.558l4.353,3.628a.363.363,0,1,0,.465-.558Z" transform="translate(-320.001 -255.995)"/></g></svg>