<svg xmlns="http://www.w3.org/2000/svg" width="11.688" height="18.502" viewBox="0 0 11.688 18.502"><defs><style>.a{fill:#acafbc;}</style></defs><g transform="translate(-88.516)"><g transform="translate(88.516 0)"><path class="a" d="M100.1,9.714l-3-3.258,3-3.238a.36.36,0,0,0-.3-.6H90.125V2.333a1.267,1.267,0,0,0,.784-1.126A1.207,1.207,0,0,0,89.7,0a1.187,1.187,0,0,0-1.187,1.186c0,.007,0,.014,0,.02a1.287,1.287,0,0,0,.8,1.126V18.1a.4.4,0,1,0,.8,0V10.458H99.8a.442.442,0,0,0,.362-.282A.422.422,0,0,0,100.1,9.714Zm-10.4-8.1a.4.4,0,1,1,.4-.4A.4.4,0,0,1,89.7,1.609Zm.422,8.045V3.419h8.769l-2.614,2.8a.422.422,0,0,0,0,.563l2.614,2.876H90.125Z" transform="translate(-88.516 0)"/></g></g></svg>