<svg xmlns="http://www.w3.org/2000/svg" width="240" height="101" viewBox="0 0 240 101"><defs><style>.a{fill:none;opacity:0.15;}.b,.c{stroke:none;}.c{fill:#fff;}</style></defs><g transform="translate(-808 -183)"><g class="a" transform="translate(808 211)"><path class="b" d="M42,0,84,73H0Z"/><path class="c" d="M 42 10.02619552612305 L 8.645210266113281 68 L 75.35478973388672 68 L 42 10.02619552612305 M 42 0 L 84 73 L 0 73 L 42 0 Z"/></g><g class="a" transform="translate(891 183)"><path class="b" d="M58.5,0,117,101H0Z"/><path class="c" d="M 58.49999618530273 9.975944519042969 L 8.674179077148438 96 L 108.3258056640625 96 L 58.49999618530273 9.975944519042969 M 58.49999618530273 0 L 117 101 L -7.62939453125e-06 101 L 58.49999618530273 0 Z"/></g><g class="a" transform="translate(1006 247)"><path class="b" d="M21,0,42,37H0Z"/><path class="c" d="M 20.9999942779541 10.12955093383789 L 8.5870361328125 32 L 33.41294860839844 32 L 20.9999942779541 10.12955093383789 M 20.99999618530273 0 L 41.99998474121094 37 L -3.814697265625e-06 37 L 20.99999618530273 0 Z"/></g></g></svg>