<svg xmlns="http://www.w3.org/2000/svg" xmlns:xlink="http://www.w3.org/1999/xlink" width="308" height="174" viewBox="0 0 308 174"><defs><style>.a{fill:#10ca93;}.b{clip-path:url(#a);}.c{fill:none;opacity:0.15;}.d,.e{stroke:none;}.e{fill:#fff;}</style><clipPath id="a"><rect class="a" width="308" height="174" rx="7" transform="translate(446 110)"/></clipPath></defs><g class="b" transform="translate(-446 -110)"><g class="c" transform="translate(446 197)"><path class="d" d="M96.5,0C149.8,0,193,38.056,193,85S149.8,63.5,96.5,63.5,0,131.944,0,85,43.2,0,96.5,0Z"/><path class="e" d="M 96.5 4.999984741210938 C 90.24920654296875 4.999984741210938 84.00432586669922 5.554306030273438 77.93881988525391 6.647598266601563 C 72.03482055664063 7.711746215820313 66.22926330566406 9.2989501953125 60.68344116210938 11.36509704589844 C 55.24623107910156 13.39077758789063 50.00418090820313 15.89674377441406 45.10285949707031 18.81342315673828 C 40.25796508789063 21.69651031494141 35.70455932617188 25.00530242919922 31.569091796875 28.64794921875 C 27.44500732421875 32.28054046630859 23.70338439941406 36.27442169189453 20.44808959960938 40.51866149902344 C 17.17218017578125 44.78980255126953 14.3603515625 49.35198211669922 12.09072875976563 54.07851409912109 C 9.785675048828125 58.87880706787109 8.016006469726563 63.89945220947266 6.830856323242188 69.0009765625 C 5.615966796875 74.23033142089844 5 79.61318969726563 5 85.00001525878906 C 5 91.2203369140625 5.812301635742188 94.11109924316406 6.493728637695313 95.44080352783203 C 6.716094970703125 95.87468719482422 6.956146240234375 96.19316101074219 7.152359008789063 96.31454467773438 C 7.334854125976563 96.42745208740234 7.660064697265625 96.45115661621094 7.900772094726563 96.45115661621094 C 9.051116943359375 96.45115661621094 11.38114929199219 95.93433380126953 15.94856262207031 93.47215270996094 C 19.87176513671875 91.35727691650391 24.38650512695313 88.42060089111328 29.61412048339844 85.02021789550781 C 46.82049560546875 73.828125 70.38541412353516 58.50000762939453 96.5 58.50000762939453 C 122.6176452636719 58.50000762939453 146.1830291748047 73.82891845703125 163.3897399902344 85.02162933349609 C 168.6166687011719 88.42166137695313 173.1307983398438 91.35800933837891 177.0533599853516 93.47262573242188 C 181.6198272705078 95.93441772460938 183.9492340087891 96.45115661621094 185.0992279052734 96.45115661621094 C 185.3392333984375 96.45115661621094 185.6635894775391 96.42748260498047 185.8457641601563 96.31471252441406 C 186.0423583984375 96.19300842285156 186.2828216552734 95.87403869628906 186.5054779052734 95.43959808349609 C 187.1872711181641 94.10927581787109 188 91.21824645996094 188 85.00001525878906 C 188 79.61318969726563 187.384033203125 74.23033142089844 186.1691436767578 69.0009765625 C 184.9839935302734 63.89945220947266 183.2143249511719 58.87880706787109 180.9092712402344 54.07851409912109 C 178.6396484375 49.35198211669922 175.8278198242188 44.78980255126953 172.5519104003906 40.51866149902344 C 169.2966156005859 36.27442169189453 165.5549926757813 32.28054046630859 161.430908203125 28.64794921875 C 157.2954406738281 25.00530242919922 152.7420349121094 21.69651031494141 147.8971557617188 18.81342315673828 C 142.9958190917969 15.89674377441406 137.7537689208984 13.39077758789063 132.3165588378906 11.36509704589844 C 126.7707366943359 9.2989501953125 120.9651794433594 7.711746215820313 115.0611801147461 6.647598266601563 C 108.9956741333008 5.554306030273438 102.7507934570313 4.999984741210938 96.5 4.999984741210938 M 96.5 -1.52587890625e-05 C 149.7954711914063 -1.52587890625e-05 193 38.05580139160156 193 85.00001525878906 C 193 96.98533630371094 190.1805725097656 101.4511489868164 185.0992279052734 101.4511489868164 C 170.2779235839844 101.4511489868164 136.1885986328125 63.50000762939453 96.5 63.50000762939453 C 56.81465148925781 63.50000762939453 22.72401428222656 101.4511489868164 7.900772094726563 101.4511489868164 C 2.817123413085938 101.4511489868164 0 96.98819732666016 0 85.00001525878906 C 0 38.05580139160156 43.20452880859375 -1.52587890625e-05 96.5 -1.52587890625e-05 Z"/></g><g class="c" transform="translate(566 197)"><path class="d" d="M96.5,0C149.8,0,193,38.056,193,85S149.8,63.5,96.5,63.5,0,131.944,0,85,43.2,0,96.5,0Z"/><path class="e" d="M 96.5 4.999984741210938 C 90.24920654296875 4.999984741210938 84.00432586669922 5.554306030273438 77.93881988525391 6.647598266601563 C 72.03482055664063 7.711746215820313 66.22926330566406 9.2989501953125 60.68344116210938 11.36509704589844 C 55.24623107910156 13.39077758789063 50.00418090820313 15.89674377441406 45.10285949707031 18.81342315673828 C 40.25796508789063 21.69651031494141 35.70455932617188 25.00530242919922 31.569091796875 28.64794921875 C 27.44500732421875 32.28054046630859 23.70338439941406 36.27442169189453 20.44808959960938 40.51866149902344 C 17.17218017578125 44.78980255126953 14.3603515625 49.35198211669922 12.09072875976563 54.07851409912109 C 9.785675048828125 58.87880706787109 8.016006469726563 63.89945220947266 6.830856323242188 69.0009765625 C 5.615966796875 74.23033142089844 5 79.61318969726563 5 85.00001525878906 C 5 91.2203369140625 5.812301635742188 94.11109924316406 6.493728637695313 95.44080352783203 C 6.716094970703125 95.87468719482422 6.956146240234375 96.19316101074219 7.152359008789063 96.31454467773438 C 7.334854125976563 96.42745208740234 7.660064697265625 96.45115661621094 7.900772094726563 96.45115661621094 C 9.051116943359375 96.45115661621094 11.38114929199219 95.93433380126953 15.94856262207031 93.47215270996094 C 19.87176513671875 91.35727691650391 24.38650512695313 88.42060089111328 29.61412048339844 85.02021789550781 C 46.82049560546875 73.828125 70.38541412353516 58.50000762939453 96.5 58.50000762939453 C 122.6176452636719 58.50000762939453 146.1830291748047 73.82891845703125 163.3897399902344 85.02162933349609 C 168.6166687011719 88.42166137695313 173.1307983398438 91.35800933837891 177.0533599853516 93.47262573242188 C 181.6198272705078 95.93441772460938 183.9492340087891 96.45115661621094 185.0992279052734 96.45115661621094 C 185.3392333984375 96.45115661621094 185.6635894775391 96.42748260498047 185.8457641601563 96.31471252441406 C 186.0423583984375 96.19300842285156 186.2828216552734 95.87403869628906 186.5054779052734 95.43959808349609 C 187.1872711181641 94.10927581787109 188 91.21824645996094 188 85.00001525878906 C 188 79.61318969726563 187.384033203125 74.23033142089844 186.1691436767578 69.0009765625 C 184.9839935302734 63.89945220947266 183.2143249511719 58.87880706787109 180.9092712402344 54.07851409912109 C 178.6396484375 49.35198211669922 175.8278198242188 44.78980255126953 172.5519104003906 40.51866149902344 C 169.2966156005859 36.27442169189453 165.5549926757813 32.28054046630859 161.430908203125 28.64794921875 C 157.2954406738281 25.00530242919922 152.7420349121094 21.69651031494141 147.8971557617188 18.81342315673828 C 142.9958190917969 15.89674377441406 137.7537689208984 13.39077758789063 132.3165588378906 11.36509704589844 C 126.7707366943359 9.2989501953125 120.9651794433594 7.711746215820313 115.0611801147461 6.647598266601563 C 108.9956741333008 5.554306030273438 102.7507934570313 4.999984741210938 96.5 4.999984741210938 M 96.5 -1.52587890625e-05 C 149.7954711914063 -1.52587890625e-05 193 38.05580139160156 193 85.00001525878906 C 193 96.98533630371094 190.1805725097656 101.4511489868164 185.0992279052734 101.4511489868164 C 170.2779235839844 101.4511489868164 136.1885986328125 63.50000762939453 96.5 63.50000762939453 C 56.81465148925781 63.50000762939453 22.72401428222656 101.4511489868164 7.900772094726563 101.4511489868164 C 2.817123413085938 101.4511489868164 0 96.98819732666016 0 85.00001525878906 C 0 38.05580139160156 43.20452880859375 -1.52587890625e-05 96.5 -1.52587890625e-05 Z"/></g></g></svg>